<svg width="123" height="44" viewBox="0 0 123 44" fill="none" xmlns="http://www.w3.org/2000/svg">
<g clip-path="url(#clip0_28_550)">
<path d="M31.4059 20.6603L31.1523 15.8005H32.3339C33.009 19.1826 34.8094 21.3992 37.651 21.3992C39.93 21.3992 41.3643 20.1488 41.3643 18.1876C41.3643 16.0847 40.1544 15.2034 36.7786 13.953C33.4591 12.7881 31.3211 11.2529 31.3211 7.89956C31.3211 4.54621 33.937 2.01666 37.8761 2.01666C40.2391 2.01666 42.3493 2.66995 43.7274 3.69367V7.92831H42.6862C42.152 4.91598 40.5482 3.15406 37.8754 3.15406C35.9062 3.15406 34.6684 4.3757 34.6684 6.16638C34.6684 8.15565 35.7374 8.98011 38.7478 10.0881C42.5174 11.4522 44.7964 12.9299 44.7964 16.5106C44.7964 20.4891 41.5609 22.5352 37.651 22.5352C34.9782 22.5352 32.6714 21.7108 31.4059 20.6596V20.6603Z" fill="white"/>
<path d="M50.5632 7.19015H54.2203V8.49738H50.5632V17.9041C50.5632 19.638 51.2106 20.3768 52.5324 20.3768C53.3201 20.3768 53.939 20.1214 54.6426 19.5811L54.9802 20.0927C54.08 21.5136 52.6734 22.5366 50.648 22.5366C48.3412 22.5366 46.6533 21.315 46.6533 18.1315V8.49738H44.9092V7.8441C46.8506 6.9628 48.51 5.37139 49.72 3.49579H50.5639V7.19015H50.5632Z" fill="white"/>
<path d="M66.7378 19.097C66.7378 20.0632 66.9351 20.6884 67.6665 20.6884C68.0888 20.6884 68.4826 20.5466 68.7918 20.4042L68.9605 21.0294C68.1444 21.9956 67.0761 22.5353 65.7536 22.5353C64.2345 22.5353 63.2218 21.5978 62.9404 20.0345C62.0402 21.228 60.5774 22.4784 58.552 22.4784C56.2737 22.4784 54.7539 21.0856 54.7539 18.8121C54.7539 16.3682 56.498 15.3732 58.6082 14.5775L62.8557 13.0142V10.5983C62.8557 8.97812 62.3209 7.81331 60.8587 7.81331C59.5084 7.81331 58.9736 8.83637 58.9736 10.2004C58.9736 10.7688 59.0583 11.3372 59.1987 11.9624L56.8634 12.2746C56.1035 12.0192 55.6256 11.4221 55.6256 10.4846C55.6256 8.12558 58.0449 6.90393 61.1678 6.90393C64.7686 6.90393 66.7378 8.23992 66.7378 11.5645V19.0957V19.097ZM62.8557 19.3531V14.0386L60.4364 15.0335C59.2549 15.4882 58.5235 16.1422 58.5235 17.7336C58.5235 19.2113 59.1987 20.2631 60.6899 20.2631C61.5054 20.2631 62.068 19.9502 62.8557 19.3538V19.3531Z" fill="white"/>
<path d="M67.9189 1.96119V1.36407L72.8985 0H73.5174V9.57725C74.4461 8.15634 75.993 6.90595 78.2435 6.90595C81.6755 6.90595 83.8419 9.4355 83.8419 13.8119C83.8419 19.3819 80.4377 22.5366 76.1055 22.5366C73.6299 22.5366 71.2106 21.8833 69.6068 20.5473V2.84182L67.9189 1.96119ZM79.9029 15.204C79.9029 11.7083 78.6366 9.29307 75.9923 9.29307C75.0643 9.29307 74.1641 9.69093 73.5167 10.288V18.217C73.5167 20.3768 74.3607 21.4855 76.077 21.4855C78.4679 21.4855 79.9029 18.7005 79.9029 15.2047V15.204Z" fill="white"/>
<path d="M89.7485 20.0632C89.7485 21.0582 90.1986 21.228 91.4926 21.3136V22.2511H84.0938V21.3136C85.3878 21.228 85.8379 21.0575 85.8379 20.0632V2.84182L84.15 1.96119V1.36407L89.1296 0H89.7485V20.0632Z" fill="white"/>
<path d="M104.321 12.845V13.4983H95.1499C95.0373 17.4768 97.0628 19.8359 99.8197 19.8359C101.733 19.8359 102.999 19.0121 104.012 17.5343L104.462 17.7898C103.73 20.6035 101.676 22.5359 98.4416 22.5359C94.3622 22.5359 91.6338 19.4949 91.6338 15.1185C91.6338 10.2586 94.7282 6.90527 98.5826 6.90527C102.437 6.90527 104.321 9.43482 104.321 12.845H104.321ZM95.2061 12.4471H100.832C100.832 9.77584 100.129 7.95708 98.3006 7.95708C96.4717 7.95708 95.4312 9.83268 95.2061 12.4471Z" fill="white"/>
<path d="M31.3778 42.1525L31.209 37.3495H32.0251C32.6718 40.987 34.3882 43.09 37.2575 43.09C39.8456 43.09 41.3932 41.5266 41.3932 39.3669C41.3932 36.9797 40.1554 36.0704 36.4983 34.507C33.6011 33.2847 31.4347 32.035 31.4347 28.7666C31.4347 25.8111 33.6289 23.4808 37.3423 23.4808C39.5087 23.4808 41.5342 24.106 42.9685 25.129V29.3068H42.1531C41.7308 26.0672 40.0429 24.3902 37.3423 24.3902C35.0918 24.3902 33.7977 25.8391 33.7977 27.7722C33.7977 29.9608 34.7827 30.8133 37.9334 32.1486C41.7592 33.7688 43.7847 35.2178 43.7847 38.3726C43.7847 41.9245 40.8028 43.9994 37.2582 43.9994C34.7264 43.9994 32.5599 43.2036 31.3784 42.1525H31.3778Z" fill="white"/>
<path d="M57.4842 40.9589C57.4842 41.9252 57.5404 42.1244 58.8067 42.2662L59.5381 42.3511V42.9482L55.2899 43.9994H54.8676L54.9801 41.328C53.6298 42.6921 52.1385 43.9994 50.1694 43.9994C47.7501 43.9994 46.315 42.6634 46.315 39.5661V31.694C46.315 30.6709 46.09 30.3867 44.7675 30.2162L44.3174 30.1594V29.5054L48.6496 28.7097H48.9594L48.8184 31.8076V39.0546C48.8184 41.1295 49.5783 42.323 51.3224 42.323C52.7852 42.323 53.9105 41.5561 54.9795 40.7028V31.694C54.9795 30.6709 54.7829 30.3867 53.4319 30.2162L53.0096 30.1594V29.5054L57.2856 28.7097H57.5947L57.4822 31.6933V40.9576L57.4842 40.9589Z" fill="white"/>
<path d="M78.8916 33.286C78.8916 31.2399 78.1886 30.3024 76.5285 30.3024C75.0935 30.3024 73.9405 31.0981 72.8715 32.0363V41.5567C72.8715 42.6647 73.3216 42.892 74.8129 42.9776V43.7165H68.3989V42.9776C69.8902 42.892 70.3403 42.6647 70.3403 41.5567V33.2867C70.3403 31.2406 69.6374 30.3031 67.9773 30.3031C66.5429 30.3031 65.3892 31.0988 64.3202 32.0369V41.5574C64.3202 42.6653 64.7703 42.8927 66.2616 42.9783V43.7171H59.8477V42.9783C61.3389 42.8927 61.7884 42.6653 61.7884 41.5574V31.3837L59.9602 30.3887V30.0758L64.0958 28.6548H64.4334L64.3209 31.3549C65.6427 29.8772 67.0493 28.6548 69.272 28.6548C71.2412 28.6548 72.3102 29.5642 72.704 31.4398C74.0265 29.9621 75.6019 28.6548 77.8239 28.6548C80.3557 28.6548 81.4247 30.2463 81.4247 33.3154V41.5567C81.4247 42.6647 81.8748 42.892 83.3661 42.9776V43.7165H76.9522V42.9776C78.4434 42.892 78.8935 42.6647 78.8935 41.5567V33.2867L78.8916 33.286Z" fill="white"/>
<path d="M102.746 33.286C102.746 31.2399 102.043 30.3024 100.383 30.3024C98.948 30.3024 97.7949 31.0981 96.7259 32.0363V41.5567C96.7259 42.6647 97.176 42.892 98.6673 42.9776V43.7165H92.2534V42.9776C93.7447 42.892 94.1948 42.6647 94.1948 41.5567V33.2867C94.1948 31.2406 93.4918 30.3031 91.8318 30.3031C90.3974 30.3031 89.2437 31.0988 88.1747 32.0369V41.5574C88.1747 42.6653 88.6248 42.8927 90.1161 42.9783V43.7171H83.7021V42.9783C85.1934 42.8927 85.6435 42.6653 85.6435 41.5574V31.3837L83.8153 30.3887V30.0758L87.951 28.6548H88.2885L88.176 31.3549C89.4979 29.8772 90.9044 28.6548 93.1271 28.6548C95.0963 28.6548 96.1653 29.5642 96.5591 31.4398C97.8816 29.9621 99.457 28.6548 101.679 28.6548C104.211 28.6548 105.28 30.2463 105.28 33.3154V41.5567C105.28 42.6647 105.73 42.892 107.221 42.9776V43.7165H100.807V42.9776C102.299 42.892 102.749 42.6647 102.749 41.5567V33.2867L102.746 33.286Z" fill="white"/>
<path d="M112.029 41.556C112.029 42.664 112.479 42.8913 113.971 42.9769V43.7158H107.557V42.9769C109.048 42.8913 109.498 42.664 109.498 41.556V31.3823L107.67 30.3874V30.0744L111.693 28.6535H112.031V41.5554L112.029 41.556ZM108.85 24.6188C108.85 23.6238 109.638 22.8 110.622 22.8C111.606 22.8 112.422 23.6245 112.422 24.6188C112.422 25.6131 111.635 26.4376 110.622 26.4376C109.609 26.4376 108.85 25.6138 108.85 24.6188Z" fill="white"/>
<path d="M118.19 28.9384H122.213V30.0183H118.19V39.425C118.19 41.528 118.949 42.3805 120.525 42.3805C121.397 42.3805 121.988 42.1251 122.748 41.5567L123.001 41.8978C122.27 42.9776 121.032 44.0007 119.288 44.0007C117.262 44.0007 115.715 42.8921 115.715 39.8516V30.019H113.802V29.6211C115.406 28.7405 116.7 27.2059 117.628 25.4152H118.19V28.9391V28.9384Z" fill="white"/>
<path d="M11.2358 23.2955C5.61744 23.2955 1.06348 27.8959 1.06348 33.5715C1.06348 39.2471 5.61744 43.8475 11.2358 43.8475C16.8541 43.8475 21.4054 39.2471 21.4054 33.5715C21.4054 27.8959 16.8514 23.2955 11.2358 23.2955ZM10.9452 41.213C11.5912 40.9817 12.228 40.8439 12.8495 40.6005C14.6916 39.97 16.2603 38.8901 17.6371 37.4792C16.9957 40.3217 13.8755 41.8155 10.9452 41.2137V41.213Z" fill="white"/>
<path d="M22.4431 11.5886L11.2362 0.264771L0.0253906 11.5906L11.2356 7.90691L22.4431 11.5886Z" fill="white"/>
<path d="M11.236 9.03162C7.56236 10.0767 0 11.9477 0 11.9477L11.236 23.2962L22.47 11.9477L11.236 9.03228V9.03162Z" fill="white"/>
</g>
<defs>
<clipPath id="clip0_28_550">
<rect width="123" height="44" fill="white"/>
</clipPath>
</defs>
</svg>
