<svg width="123" height="44" viewBox="0 0 123 44" fill="none" xmlns="http://www.w3.org/2000/svg">
<g clip-path="url(#clip0_28_550)">
<path d="M31.4058 20.6603L31.1523 15.8005H32.3338C33.0089 19.1826 34.8094 21.3992 37.6509 21.3992C39.9299 21.3992 41.3643 20.1488 41.3643 18.1876C41.3643 16.0847 40.1543 15.2034 36.7785 13.953C33.459 12.7881 31.3211 11.2529 31.3211 7.89956C31.3211 4.54621 33.9369 2.01666 37.876 2.01666C40.239 2.01666 42.3492 2.66995 43.7273 3.69367V7.92831H42.6861C42.152 4.91598 40.5481 3.15406 37.8753 3.15406C35.9061 3.15406 34.6684 4.3757 34.6684 6.16638C34.6684 8.15565 35.7374 8.98011 38.7477 10.0881C42.5173 11.4522 44.7963 12.9299 44.7963 16.5106C44.7963 20.4891 41.5609 22.5352 37.6509 22.5352C34.9781 22.5352 32.6714 21.7108 31.4058 20.6596V20.6603Z" fill="white"/>
<path d="M50.5629 7.19015H54.2199V8.49738H50.5629V17.9041C50.5629 19.638 51.2102 20.3768 52.5321 20.3768C53.3197 20.3768 53.9386 20.1214 54.6422 19.5811L54.9798 20.0927C54.0796 21.5136 52.6731 22.5366 50.6476 22.5366C48.3408 22.5366 46.653 21.315 46.653 18.1315V8.49738H44.9088V7.8441C46.8502 6.9628 48.5096 5.37139 49.7196 3.49579H50.5635V7.19015H50.5629Z" fill="white"/>
<path d="M66.7381 19.097C66.7381 20.0632 66.9353 20.6884 67.6667 20.6884C68.089 20.6884 68.4829 20.5466 68.792 20.4042L68.9608 21.0294C68.1446 21.9956 67.0763 22.5353 65.7538 22.5353C64.2347 22.5353 63.222 21.5978 62.9407 20.0345C62.0405 21.228 60.5776 22.4784 58.5522 22.4784C56.2739 22.4784 54.7541 21.0856 54.7541 18.8121C54.7541 16.3682 56.4983 15.3732 58.6084 14.5775L62.8559 13.0142V10.5983C62.8559 8.97812 62.3211 7.81331 60.8589 7.81331C59.5086 7.81331 58.9738 8.83637 58.9738 10.2004C58.9738 10.7688 59.0585 11.3372 59.1989 11.9624L56.8636 12.2746C56.1038 12.0192 55.6259 11.4221 55.6259 10.4846C55.6259 8.12558 58.0451 6.90393 61.1681 6.90393C64.7689 6.90393 66.7381 8.23992 66.7381 11.5645V19.0957V19.097ZM62.8559 19.3531V14.0386L60.4366 15.0335C59.2551 15.4882 58.5237 16.1422 58.5237 17.7336C58.5237 19.2113 59.1989 20.2631 60.6902 20.2631C61.5056 20.2631 62.0683 19.9502 62.8559 19.3538V19.3531Z" fill="white"/>
<path d="M67.9189 1.96119V1.36407L72.8985 0H73.5174V9.57725C74.446 8.15634 75.9929 6.90595 78.2434 6.90595C81.6754 6.90595 83.8419 9.4355 83.8419 13.8119C83.8419 19.3819 80.4376 22.5366 76.1054 22.5366C73.6299 22.5366 71.2106 21.8833 69.6068 20.5473V2.84182L67.9189 1.96119ZM79.9028 15.204C79.9028 11.7083 78.6366 9.29307 75.9922 9.29307C75.0642 9.29307 74.164 9.69093 73.5167 10.288V18.217C73.5167 20.3768 74.3606 21.4855 76.077 21.4855C78.4678 21.4855 79.9028 18.7005 79.9028 15.2047V15.204Z" fill="white"/>
<path d="M89.7488 20.0632C89.7488 21.0582 90.1989 21.228 91.4929 21.3136V22.2511H84.0941V21.3136C85.3881 21.228 85.8382 21.0575 85.8382 20.0632V2.84182L84.1503 1.96119V1.36407L89.1299 0H89.7488V20.0632Z" fill="white"/>
<path d="M104.321 12.845V13.4983H95.15C95.0375 17.4768 97.0629 19.8359 99.8198 19.8359C101.733 19.8359 102.999 19.0121 104.012 17.5343L104.462 17.7898C103.73 20.6035 101.676 22.5359 98.4417 22.5359C94.3623 22.5359 91.6339 19.4949 91.6339 15.1185C91.6339 10.2586 94.7284 6.90527 98.5827 6.90527C102.437 6.90527 104.321 9.43482 104.321 12.845H104.321ZM95.2063 12.4471H100.833C100.833 9.77584 100.13 7.95708 98.3007 7.95708C96.4718 7.95708 95.4313 9.83268 95.2063 12.4471Z" fill="white"/>
<path d="M31.378 42.1525L31.2092 37.3495H32.0253C32.672 40.987 34.3884 43.09 37.2578 43.09C39.8458 43.09 41.3934 41.5266 41.3934 39.3669C41.3934 36.9797 40.1556 36.0704 36.4985 34.507C33.6014 33.2847 31.4349 32.035 31.4349 28.7666C31.4349 25.8111 33.6292 23.4808 37.3425 23.4808C39.5089 23.4808 41.5344 24.106 42.9687 25.129V29.3068H42.1533C41.731 26.0672 40.0431 24.3902 37.3425 24.3902C35.092 24.3902 33.7979 25.8391 33.7979 27.7722C33.7979 29.9608 34.7829 30.8133 37.9336 32.1486C41.7594 33.7688 43.7849 35.2178 43.7849 38.3726C43.7849 41.9245 40.803 43.9994 37.2584 43.9994C34.7266 43.9994 32.5602 43.2036 31.3786 42.1525H31.378Z" fill="white"/>
<path d="M57.4839 40.9589C57.4839 41.9252 57.5401 42.1244 58.8064 42.2662L59.5378 42.3511V42.9482L55.2896 43.9994H54.8673L54.9798 41.328C53.6295 42.6921 52.1382 43.9994 50.169 43.9994C47.7498 43.9994 46.3147 42.6634 46.3147 39.5661V31.694C46.3147 30.6709 46.0897 30.3867 44.7672 30.2162L44.3171 30.1594V29.5054L48.6493 28.7097H48.9591L48.8181 31.8076V39.0546C48.8181 41.1295 49.578 42.323 51.3221 42.323C52.7849 42.323 53.9102 41.5561 54.9792 40.7028V31.694C54.9792 30.6709 54.7826 30.3867 53.4316 30.2162L53.0093 30.1594V29.5054L57.2853 28.7097H57.5944L57.4819 31.6933V40.9576L57.4839 40.9589Z" fill="white"/>
<path d="M78.8914 33.286C78.8914 31.2399 78.1885 30.3024 76.5284 30.3024C75.0934 30.3024 73.9403 31.0981 72.8713 32.0363V41.5567C72.8713 42.6647 73.3214 42.892 74.8127 42.9776V43.7165H68.3988V42.9776C69.8901 42.892 70.3402 42.6647 70.3402 41.5567V33.2867C70.3402 31.2406 69.6372 30.3031 67.9772 30.3031C66.5428 30.3031 65.3891 31.0988 64.3201 32.0369V41.5574C64.3201 42.6653 64.7702 42.8927 66.2615 42.9783V43.7171H59.8475V42.9783C61.3388 42.8927 61.7883 42.6653 61.7883 41.5574V31.3837L59.9601 30.3887V30.0758L64.0957 28.6548H64.4333L64.3207 31.3549C65.6426 29.8772 67.0492 28.6548 69.2719 28.6548C71.241 28.6548 72.31 29.5642 72.7039 31.4398C74.0264 29.9621 75.6017 28.6548 77.8238 28.6548C80.3556 28.6548 81.4246 30.2463 81.4246 33.3154V41.5567C81.4246 42.6647 81.8747 42.892 83.366 42.9776V43.7165H76.952V42.9776C78.4433 42.892 78.8934 42.6647 78.8934 41.5567V33.2867L78.8914 33.286Z" fill="white"/>
<path d="M102.746 33.286C102.746 31.2399 102.043 30.3024 100.383 30.3024C98.9481 30.3024 97.795 31.0981 96.726 32.0363V41.5567C96.726 42.6647 97.1761 42.892 98.6674 42.9776V43.7165H92.2535V42.9776C93.7448 42.892 94.1948 42.6647 94.1948 41.5567V33.2867C94.1948 31.2406 93.4919 30.3031 91.8318 30.3031C90.3975 30.3031 89.2437 31.0988 88.1748 32.0369V41.5574C88.1748 42.6653 88.6248 42.8927 90.1161 42.9783V43.7171H83.7022V42.9783C85.1935 42.8927 85.6436 42.6653 85.6436 41.5574V31.3837L83.8154 30.3887V30.0758L87.951 28.6548H88.2886L88.1761 31.3549C89.4979 29.8772 90.9045 28.6548 93.1272 28.6548C95.0964 28.6548 96.1654 29.5642 96.5592 31.4398C97.8817 29.9621 99.4571 28.6548 101.679 28.6548C104.211 28.6548 105.28 30.2463 105.28 33.3154V41.5567C105.28 42.6647 105.73 42.892 107.221 42.9776V43.7165H100.807V42.9776C102.299 42.892 102.749 42.6647 102.749 41.5567V33.2867L102.746 33.286Z" fill="white"/>
<path d="M112.029 41.556C112.029 42.664 112.48 42.8913 113.971 42.9769V43.7158H107.557V42.9769C109.048 42.8913 109.498 42.664 109.498 41.556V31.3823L107.67 30.3874V30.0744L111.693 28.6535H112.031V41.5554L112.029 41.556ZM108.85 24.6188C108.85 23.6238 109.638 22.8 110.622 22.8C111.606 22.8 112.423 23.6245 112.423 24.6188C112.423 25.6131 111.635 26.4376 110.622 26.4376C109.609 26.4376 108.85 25.6138 108.85 24.6188Z" fill="white"/>
<path d="M118.19 28.9384H122.213V30.0183H118.19V39.425C118.19 41.528 118.949 42.3805 120.525 42.3805C121.397 42.3805 121.988 42.1251 122.748 41.5567L123.001 41.8978C122.269 42.9776 121.031 44.0007 119.287 44.0007C117.262 44.0007 115.714 42.8921 115.714 39.8516V30.019H113.801V29.6211C115.405 28.7405 116.699 27.2059 117.627 25.4152H118.19V28.9391V28.9384Z" fill="white"/>
<path d="M11.236 23.2955C5.61765 23.2955 1.06369 27.8959 1.06369 33.5715C1.06369 39.2471 5.61765 43.8475 11.236 43.8475C16.8543 43.8475 21.4056 39.2471 21.4056 33.5715C21.4056 27.8959 16.8516 23.2955 11.236 23.2955ZM10.9454 41.213C11.5914 40.9817 12.2282 40.8439 12.8497 40.6005C14.6918 39.97 16.2606 38.8901 17.6373 37.4792C16.9959 40.3217 13.8757 41.8155 10.9454 41.2137V41.213Z" fill="white"/>
<path d="M22.4428 11.5886L11.236 0.264771L0.0251465 11.5906L11.2353 7.90691L22.4428 11.5886Z" fill="white"/>
<path d="M11.236 9.03162C7.56236 10.0767 0 11.9477 0 11.9477L11.236 23.2962L22.47 11.9477L11.236 9.03228V9.03162Z" fill="white"/>
</g>
<defs>
<clipPath id="clip0_28_550">
<rect width="123" height="44" fill="white"/>
</clipPath>
</defs>
</svg>
